<?xml version="1.0" encoding="utf-8"?>
<svg version="1.1" id="Layer_1" xmlns="http://www.w3.org/2000/svg" xmlns:xlink="http://www.w3.org/1999/xlink" x="0px" y="0px"
	 viewBox="0 0 303.48 238.72" style="enable-background:new 0 0 303.48 238.72;" xml:space="preserve">
<style type="text/css">
	.st0{fill:#231F20;}
	.st1{fill:#ED1C24;}
	.st2{fill:#FFFFFF;}
	.st3{fill:#BCBEC0;}
</style>
<path class="st0" d="M140.8,14.51L12.74,183.68c-13.44,17.75-1.73,44.38,19.52,44.38h119.47h119.47c21.25,0,32.96-26.62,19.52-44.38
	L162.68,14.51C157.19,7.26,146.29,7.26,140.8,14.51z"/>
<g>
	<path class="st1" d="M293.22,181.8L165.17,12.63c-3.21-4.24-8.1-6.67-13.42-6.67s-10.21,2.43-13.42,6.67L10.26,181.8
		c-7.28,9.62-8.42,22.39-2.98,33.34c4.99,10.04,14.33,16.03,24.99,16.03h238.94c10.65,0,20-5.99,24.99-16.03
		C301.64,204.2,300.5,191.42,293.22,181.8z M290.62,212.37c-3.92,7.87-11.17,12.58-19.41,12.58H32.27c-8.24,0-15.49-4.7-19.41-12.58
		c-4.38-8.82-3.48-19.09,2.37-26.81L143.29,16.39c2.02-2.67,5.1-4.2,8.46-4.2s6.43,1.53,8.46,4.2l128.06,169.17
		C294.1,193.28,295,203.55,290.62,212.37z"/>
	<polygon class="st1" points="39.48,151.1 264,151.1 161.91,11.14 144.39,9.07 	"/>
</g>
<g>
	<path class="st2" d="M156.1,107.33h-9.22l-8.05-57.84c-0.23-2.35-0.45-4.41-0.67-6.2c-0.23-1.79-0.34-3.35-0.34-4.69
		c0-3.13,0.95-5.75,2.85-7.88c1.9-2.12,5.59-3.19,11.06-3.19c5.14,0,8.74,1.06,10.81,3.19c2.07,2.12,3.1,4.86,3.1,8.21
		c0,1.45-0.08,3.1-0.25,4.95c-0.17,1.84-0.36,3.72-0.59,5.62L156.1,107.33z M151.24,141.02c-4.36,0-7.63-1.01-9.81-3.02
		c-2.18-2.01-3.27-4.97-3.27-8.88c0-3.91,1.06-7.01,3.19-9.3c2.12-2.29,5.42-3.44,9.89-3.44c4.25,0,7.49,1.15,9.72,3.44
		c2.23,2.29,3.3,5.45,3.19,9.47c-0.11,4.02-1.2,6.99-3.27,8.88C158.81,140.07,155.6,141.02,151.24,141.02z"/>
</g>
<g>
	<path class="st3" d="M38.89,214.5v-50.17h29.43v11.79H54.72v7.31h12.19v11.34H54.72v7.67h13.59v12.05H38.89z"/>
	<path class="st3" d="M119.48,214.5h-17.12l-7.82-17.87c-0.08-0.3-0.21-0.7-0.4-1.2c-0.19-0.5-0.42-1.09-0.7-1.79l0.11,3.31v17.55
		H77.79v-50.17h16.21c7.14,0,12.48,1.2,16.02,3.61c4.5,3.08,6.76,7.45,6.76,13.13c0,6.07-3.02,10.26-9.07,12.57L119.48,214.5z
		 M93.63,187.57h1.06c1.82,0,3.34-0.6,4.56-1.79s1.82-2.71,1.82-4.55c0-3.75-2.29-5.62-6.87-5.62h-0.57V187.57z"/>
	<path class="st3" d="M169.13,214.5h-17.12l-7.82-17.87c-0.08-0.3-0.21-0.7-0.4-1.2c-0.19-0.5-0.42-1.09-0.7-1.79l0.11,3.31v17.55
		h-15.76v-50.17h16.21c7.14,0,12.48,1.2,16.02,3.61c4.5,3.08,6.76,7.45,6.76,13.13c0,6.07-3.02,10.26-9.07,12.57L169.13,214.5z
		 M143.28,187.57h1.06c1.82,0,3.34-0.6,4.56-1.79s1.82-2.71,1.82-4.55c0-3.75-2.29-5.62-6.87-5.62h-0.57V187.57z"/>
	<path class="st3" d="M270.6,214.5h-17.12l-7.82-17.87c-0.08-0.3-0.21-0.7-0.4-1.2c-0.19-0.5-0.42-1.09-0.7-1.79l0.11,3.31v17.55
		h-15.76v-50.17h16.21c7.14,0,12.48,1.2,16.02,3.61c4.5,3.08,6.76,7.45,6.76,13.13c0,6.07-3.02,10.26-9.07,12.57L270.6,214.5z
		 M244.74,187.57h1.06c1.82,0,3.34-0.6,4.56-1.79s1.82-2.71,1.82-4.55c0-3.75-2.29-5.62-6.87-5.62h-0.57V187.57z"/>
	<g>
		<path class="st3" d="M222.16,181.48c-0.16-2.05-0.94-3.86-2.16-5.44c-0.81-1.05-1.93-1.85-2.55-3.07
			c-0.04-0.08-0.15-0.12-0.23-0.18c-0.35-0.25-0.72-0.47-1.05-0.74c-2.27-1.8-4.17-4.06-6.82-5.38c-1.33-0.67-2.64-1.51-4.06-1.87
			c-2.26-0.57-4.57-0.98-6.94-0.8c-1.55,0.12-3.1,0.14-4.65,0.48c-2.41,0.53-4.66,1.33-6.51,3c-1.52,1.37-3.01,2.76-3.71,4.78
			c-0.42,1.21-0.95,2.38-1.51,3.53c-0.33,0.68-0.53,1.53-1.41,1.75c-1.67,0.43-2.19,1.99-2.03,3.44c0.22,2.02-0.12,3.89-1.08,5.69
			c-0.24,0.45-0.24,1.02-0.35,1.54c-0.18,0.91-0.12,1.84-0.7,2.68c-0.98,1.41-0.09,3.3,1.61,3.63c0.48,0.09,0.96,0.25,1.44,0.39
			c0.63-0.82,1.06-1.9,1.05-2.84c0-0.23-0.16-0.53-0.34-0.65c-0.36-0.24-0.81-0.34-1.17-0.56c-0.18-0.11-0.26-0.39-0.39-0.59
			c0.13-0.07,0.3-0.25,0.38-0.21c0.63,0.24,1.15,0.1,1.69-0.28c0.43-0.31,0.92-0.08,0.9,0.41c-0.03,0.69-0.11,1.38-0.24,2.05
			c-0.11,0.59-0.3,1.16-0.48,1.73c-0.12,0.37-0.23,0.79-0.46,1.09c-0.53,0.68-0.42,1.35-0.22,1.92c0.54-0.05,1.07-0.25,1.42-0.08
			c0.38,0.19,0.58,0.72,0.87,1.11c0.49-0.49,0.73-1.46,1.75-1.34c1,0.12,1.12,1.01,1.38,1.76c1.24-1.03,2.02-0.69,2.24,0.74
			c0.36-0.41,0.69-0.78,1.02-1.15c0.32-0.36,0.65-0.7,0.98-1.06c0.09,0.05,0.17,0.1,0.25,0.15c-0.08,0.27-0.19,0.54-0.25,0.82
			c-0.05,0.25-0.09,0.53-0.03,0.76c0.07,0.28,0.26,0.53,0.4,0.8c0.47-0.54,0.92-1.06,1.37-1.57c0.05,0.02,0.11,0.04,0.16,0.07
			c0.02,0.18,0.13,0.42,0.05,0.54c-0.42,0.67,0.06,1.16,0.28,1.86c0.46-0.54,0.83-0.99,1.23-1.43c0.12-0.12,0.3-0.19,0.45-0.28
			c0.04,0.16,0.16,0.36,0.1,0.46c-0.36,0.66,0.05,1.08,0.41,1.58c0.34-0.26,0.65-0.51,0.97-0.74c0.32-0.22,0.59-0.62,1.17-0.36
			c-0.15,0.25-0.28,0.48-0.42,0.72c0.23,0.44,0.46,0.31,0.69-0.01c0.27-0.37,0.54-0.74,0.87-1.18c0.22,0.62-0.06,1.27,0.58,1.5
			c0.68-1,1.32-1.96,2.06-3.05c-0.35,0.02-0.54-0.03-0.65,0.04c-0.37,0.25-0.71,0.56-1.08,0.81c-0.14,0.1-0.35,0.1-0.52,0.15
			c0.03-0.18,0.01-0.39,0.1-0.52c0.28-0.38,0.61-0.73,1.04-1.22c-0.38,0.02-0.69-0.04-0.89,0.07c-0.42,0.24-0.8,0.57-1.18,0.88
			c-0.46,0.38-0.88,0.8-1.35,1.17c-0.11,0.09-0.33,0.02-0.5,0.03c0.08-0.16,0.13-0.34,0.25-0.47c0.35-0.39,0.71-0.76,1.09-1.12
			c0.4-0.38,0.8-0.79,1.26-1.1c0.53-0.37,1.17-0.41,1.69,0c0.69,0.54,1.46,0.83,2.29,0.95c1.21,0.17,2.44,0.5,3.63-0.14
			c0.61-0.33,1.22-0.67,1.83-1c0.24-0.13,0.47-0.32,0.73-0.4c1.11-0.35,2.23-0.4,3.4-0.25c1.05,0.14,1.78,0.6,2.33,1.47
			c0.55,0.86,0.48,1.83,0.57,2.78c0.01,0.09-0.06,0.19-0.12,0.27c-0.43,0.55-0.84,1.12-1.32,1.63c-0.71,0.75-0.91,1.75-0.48,2.68
			c0.12,0.27,0.2,0.57,0.23,0.87c0.05,0.47,0.25,0.73,0.74,0.77c0.21,0.02,0.42,0.11,0.63,0.16c2.03-1.97,3.38-4.34,4.2-7.04
			c1.06-3.47,1.52-7.12,3-10.46c0.27-0.6,0.59-1.2,0.71-1.84C222.14,185.04,222.3,183.28,222.16,181.48z M195.62,174.54
			c-1,0.43-1.88,0.81-2.78,1.18c-0.08,0.03-0.22-0.06-0.37-0.11C193.55,174.49,194.76,174.03,195.62,174.54z M187.1,173.68
			c0.58,0.21,1.15,0.43,1.69,0.72c0.22,0.13,0.34,0.45,0.5,0.69c-0.06,0.06-0.12,0.12-0.19,0.17c-0.15-0.04-0.31-0.06-0.44-0.12
			c-0.59-0.29-1.18-0.57-1.75-0.89c-0.15-0.09-0.23-0.32-0.34-0.48C186.75,173.73,186.95,173.62,187.1,173.68z M184.56,196.06
			c-0.1,0.05-0.28,0.05-0.36-0.01c-0.09-0.07-0.18-0.27-0.15-0.35c0.24-0.51,0.52-0.99,0.79-1.48
			C185.37,194.93,185.14,195.77,184.56,196.06z M190.17,192.69c-0.12,0.8-0.56,1.56-0.91,2.31c-0.07,0.15-0.49,0.32-0.6,0.25
			c-0.35-0.21-0.03-0.43,0.1-0.63c0.12-0.19,0.24-0.39,0.29-0.48c-0.74,0.13-1.5,0.26-2.31,0.4c0,0.25,0.89,0.45,0.26,1.04
			c-0.58-0.67-1.48-1.08-1.5-2.12c0-0.27,0.08-0.54,0.1-0.82c0.04-0.68,0.08-1.36,0.11-2.04c-0.1-0.01-0.21-0.02-0.32-0.03
			c-0.15,0.57-0.33,1.13-0.44,1.71c-0.17,0.84-0.51,1.57-1.26,2.02c-0.23,0.14-0.52,0.19-0.88,0.21c0.8-0.61,0.37-1.22,0.17-1.83
			c-0.25-0.76-0.05-1.5,0.23-2.22c0.2-0.52,0.38-1.06,0.63-1.56c0.59-1.17,0.63-2.37,0.28-3.61c-0.2-0.7,0.22-1.25,0.95-1.23
			c0.44,0.01,0.77-0.08,1.02-0.46c0.08-0.12,0.32-0.14,0.49-0.21c-0.02,0.18,0.02,0.4-0.08,0.53c-0.24,0.33-0.18,0.6,0.01,0.93
			c0.63,1.09,1.31,2.1,2.28,2.97C190.2,189.08,190.43,190.89,190.17,192.69z M191.3,192.72c-0.18,0.41-0.23,1.03-1.02,0.93
			c0.26-0.99,0.51-1.91,0.76-2.83C191.55,191.27,191.66,191.92,191.3,192.72z M190.75,188.24c0.07-0.01,0.14-0.02,0.21-0.03
			c0.06,0.38,0.13,0.75,0.2,1.18C190.46,189.24,190.35,188.79,190.75,188.24z M193.46,198.12c-0.09-1.26,0.5-2.3,1.4-2.56
			C194.64,196.53,194.15,197.28,193.46,198.12z M199.7,191.63c-0.83,0.06-1.66,0.08-2.49,0.11c-0.35,0.01-0.71-0.01-1.04,0.09
			c-0.73,0.23-1.11,0.17-1.6-0.41c-0.46-0.55-0.92-1.11-1.33-1.7c-0.29-0.41-0.31-0.86,0.13-1.31c0.25,0.45,0.47,0.89,0.75,1.28
			c0.17,0.24,0.42,0.48,0.69,0.6c0.66,0.29,1.33,0.58,2.03,0.73c0.69,0.15,1.41,0.14,2.12,0.17c0.38,0.02,0.77-0.04,1.15-0.07
			c0.02,0.07,0.05,0.13,0.07,0.2C200.02,191.42,199.87,191.62,199.7,191.63z M204.13,184.14c-0.18,0.23-0.14,0.65-0.15,0.98
			c-0.01,0.48,0.06,0.96,0.05,1.44c-0.04,1.87-1.57,3.96-4.22,3.46c-2.02-0.38-3.96-0.98-5.52-2.44c-0.71-0.66-1.43-1.32-1.36-2.42
			c0.01-0.07,0.03-0.15,0.07-0.32c0.14,0.13,0.27,0.19,0.31,0.28c0.63,1.56,1.82,2.43,3.42,2.81c0.46,0.11,0.82-0.08,0.77-0.54
			c-0.04-0.37-0.17-0.81-0.42-1.06c-0.5-0.51-0.79-1.01-0.72-1.75c0.06-0.69-0.31-1.16-0.94-1.45c-0.56-0.25-1.09-0.56-1.65-0.86
			c-0.57,0.54,0,1.2-0.04,1.82c-0.78-0.04-1.04-0.93-0.68-2.34c-2.06-0.23-1.37-1.66-1.18-2.83c-0.8-0.27-1.13-0.04-1.1,0.68
			c0,0.14,0.02,0.3-0.04,0.42c-0.79,1.67-0.91,3.6-1.92,5.19c-0.05,0.08-0.11,0.15-0.28,0.38c-0.05-0.78-0.15-1.4,0.21-1.96
			c0.42-0.66,0.59-1.38,0.68-2.15c0.05-0.44,0.31-0.85,0.48-1.27c0.09-0.22,0.24-0.44,0.22-0.65c-0.01-0.15-0.23-0.35-0.4-0.41
			c-0.13-0.05-0.39,0.05-0.47,0.17c-0.53,0.75-1.02,1.53-1.56,2.28c-0.11,0.16-0.37,0.21-0.56,0.31c0.02-0.19-0.03-0.43,0.06-0.58
			c0.45-0.78,0.95-1.53,1.39-2.31c0.12-0.21,0.1-0.49,0.15-0.74c-0.29,0.05-0.7,0-0.86,0.17c-0.39,0.42-0.72,0.92-0.97,1.43
			c-0.6,1.26-1.31,2.42-2.41,3.32c-0.68,0.56-0.76,1.42-0.81,2.25c-0.04,0.66-0.06,1.32-0.17,1.97c-0.04,0.24-0.29,0.46-0.45,0.68
			c-0.06-0.02-0.11-0.05-0.17-0.07c0.02-0.44,0.04-0.88,0.06-1.38c-0.53,0.4-0.97,0.82-1.48,1.1c-0.5,0.28-1.06,0.48-1.61,0.63
			c-0.5,0.14-0.94-0.08-1.28-0.48c-0.33-0.4-0.38-0.85-0.15-1.29c0.75-1.45,1.11-2.94,0.78-4.58c-0.09-0.44-0.05-0.93,0.02-1.38
			c0.25-1.72,1.37-2.69,3.3-2.91c0.36-0.04,0.72-0.1,1.07-0.07c1.48,0.11,1.94,0.64,2.23,2.58c0.47-0.76,0.87-1.45,1.31-2.11
			c0.76-1.13,1.61-1.18,2.47-0.15c0.37,0.44,0.67,0.5,1.17,0.16c0.99-0.69,1.95-0.22,2.14,0.98c0.03,0.18,0.03,0.36,0.08,0.53
			c0.06,0.22,0.16,0.43,0.24,0.65c0.32-0.17,0.66-0.3,0.94-0.52c0.12-0.1,0.13-0.37,0.16-0.56c0.18-1.42,1.51-1.98,2.69-1.67
			c0.78,0.21,1.58,0.49,2.26,0.93c0.96,0.62,1.93,0.88,3.06,0.83c1.44-0.07,2.17,0.71,2.29,2.16
			C204.73,182.46,204.74,183.33,204.13,184.14z M206.88,190.43c0,0.18-0.08,0.36-0.12,0.54c-0.15-0.12-0.33-0.22-0.46-0.37
			c-0.3-0.34-0.3-0.72-0.09-1.1c0.1-0.17,0.28-0.3,0.43-0.45c0.09,0.17,0.18,0.34,0.27,0.5c-0.04,0.02-0.09,0.04-0.13,0.06
			C206.81,189.88,206.87,190.15,206.88,190.43z M215.2,197.38c-0.04,0.2-0.15,0.4-0.23,0.59c-0.07,0.01-0.15,0.02-0.22,0.02
			c-0.13-0.32-0.33-0.62-0.38-0.95c-0.31-2.06-1.06-2.9-3.11-3.31c-0.75-0.15-1.34-0.48-1.82-1.06c-0.54-0.65-1.1-1.28-1.63-1.93
			c-0.66-0.8-0.46-1.74-0.37-2.65c0.09-0.85,0.23-1.7,0.3-2.56c0.03-0.29,0.02-0.66-0.13-0.88c-0.71-0.98-0.35-2.13-0.56-3.18
			c-0.1-0.49-0.26-1.01-0.55-1.41c-1.05-1.45-0.76-3.53,0.7-4.56c0.1-0.07,0.19-0.16,0.29-0.21c0.17-0.06,0.36-0.15,0.52-0.12
			c0.11,0.02,0.28,0.3,0.26,0.34c-0.1,0.14-0.26,0.26-0.42,0.33c-0.88,0.39-1.33,1.61-0.87,2.49c0.57,1.1,1.2,2.18,1.28,3.46
			c0.01,0.18-0.02,0.36,0,0.53c0.05,0.4,0.01,0.86,0.19,1.19c0.78,1.39,1.09,2.81,0.64,4.38c-0.34,1.16-0.03,2.17,0.88,2.99
			c0.3,0.27,0.56,0.57,0.83,0.87c0.42,0.47,0.89,0.79,1.54,0.96C214.21,193.21,215.59,195.51,215.2,197.38z"/>
		<path class="st3" d="M212.97,198c-0.01-0.03,0.01-0.08,0.04-0.11c0.21-0.32,0.01-0.52-0.24-0.62c-0.59-0.24-1.2-0.42-1.79-0.66
			c-0.52-0.21-0.92-0.02-1.21,0.37c-0.21,0.28-0.33,0.63-0.48,0.95c-0.22,0.51-0.39,1.06-0.66,1.54c-0.32,0.57-0.85,0.95-1.53,0.88
			c-0.68-0.07-0.92-0.62-1.08-1.21c-0.05-0.19-0.12-0.4-0.25-0.54c-0.14-0.15-0.35-0.3-0.54-0.32c-0.71-0.08-1.36,0.49-1.47,1.2
			c-0.1,0.67-0.1,1.41-0.39,1.99c-0.95,1.94-1.97,3.85-3.05,5.72c-0.59,1.01-1.62,1.4-2.78,1.37c-0.3-0.01-0.6-0.16-0.9-0.24
			c0-0.08,0.01-0.15,0.01-0.23c0.77-0.18,1.54-0.37,2.3-0.55c0.02-0.08,0.04-0.16,0.07-0.25c-0.53-0.38-1.05-0.75-1.58-1.12
			c-0.07,0.05-0.14,0.11-0.2,0.16c0.08,0.19,0.19,0.38,0.22,0.58c0.03,0.16-0.02,0.34-0.07,0.49c-0.01,0.04-0.23,0.06-0.3,0.01
			c-0.56-0.4-1.1-0.82-1.8-1.35c-0.03,0.36-0.08,0.62-0.08,0.88c0,0.26,0.05,0.52,0.08,0.78c-0.06,0.02-0.12,0.04-0.18,0.05
			c-0.47-0.54-0.95-1.08-1.37-1.57c-0.66,0.3-0.42,0.64-0.37,0.95c0.05,0.3,0.06,0.61,0.09,0.92c-0.09,0.04-0.18,0.08-0.27,0.11
			c-0.27-0.9-0.77-1.59-1.64-2.05c0.11,0.45,0.21,0.89,0.32,1.34c-0.08,0.05-0.16,0.09-0.25,0.14c-0.58-0.69-1.16-1.38-1.76-2.1
			c-0.19,0.21-0.36,0.4-0.46,0.5c0.08,0.49,0.14,0.89,0.2,1.28c-0.08,0.02-0.15,0.05-0.22,0.06c-0.8-0.59-1.18-1.46-1.46-2.37
			c-0.41,0.29-0.78,0.76-1.17,0.76c-0.34,0.01-0.69-0.5-0.92-0.68c-0.42,0.12-0.84,0.39-1.14,0.29c-0.37-0.12-0.64-0.55-0.9-0.79
			c-0.27,0.24-0.57,0.68-0.82,0.66c-0.32-0.02-0.6-0.44-0.9-0.68c-0.72,1.12-1.11,1.19-1.99,0.24c-0.06,0.36-0.13,0.63-0.16,0.9
			c-0.1,0.97-0.27,1.89-1.06,2.6c-0.19,0.18-0.24,0.57-0.26,0.88c-0.06,0.95-0.03,1.91-0.13,2.85c-0.12,1.19,0.36,1.92,1.52,2.1
			c0.53,0.08,1.08,0.11,1.62,0.14c1.14,0.06,2.3-0.01,3.42,0.2c2.84,0.53,5.67,1.02,8.58,0.66c1.49-0.18,3.03-0.05,4.49-0.35
			c2.17-0.45,4.29-1.14,6.26-2.19c1.21-0.65,2.24-1.49,2.82-2.77c0.59-1.29,1.18-2.58,1.67-3.91c0.72-1.93,1.66-3.72,3.05-5.26
			C212.56,199.89,213.37,199.18,212.97,198z M182.31,208.45c-0.2-0.92,0-1.59,0.6-2C183.04,207.26,182.9,207.89,182.31,208.45z
			 M185.03,208.31c-0.07-0.01-0.15-0.03-0.22-0.05c0.09-0.5,0.18-0.99,0.28-1.49c0.08,0.02,0.15,0.03,0.23,0.04
			C185.3,207.33,185.35,207.86,185.03,208.31z M187.56,208.6c-0.16-0.29-0.51-0.61-0.01-1c0.29,0.52,0.55,0.99,0.82,1.48
			C187.9,209.2,187.89,209.21,187.56,208.6z M191.71,211.48c-0.48,0.5-1.18,0.61-1.87,0.3c0.17-0.36,0.29-0.69,0.48-0.99
			c0.09-0.15,0.38-0.36,0.45-0.32c0.54,0.33,0.91-0.02,1.31-0.38C192.34,210.73,192.05,211.13,191.71,211.48z M206.97,207.81
			c-0.14,0.47-0.3,0.94-0.47,1.4c-0.08,0.22-0.17,0.45-0.32,0.62c-0.42,0.46-0.85,0.9-1.32,1.31c-0.17,0.15-0.43,0.19-0.65,0.27
			c-0.04-0.06-0.07-0.11-0.11-0.17c0.09-0.17,0.14-0.4,0.27-0.5c1.11-0.83,1.58-2.06,2.07-3.28c0.11-0.28,0.34-0.52,0.51-0.78
			c0.09,0.04,0.18,0.08,0.27,0.11C207.14,207.13,207.07,207.47,206.97,207.81z"/>
		<path class="st3" d="M184.08,197.56c-0.09-0.06-0.53,0.23-0.66,0.45c-0.5,0.86-0.93,1.75-1.42,2.69c0.41,0.19,0.7,0.32,0.99,0.45
			c0.11,0.05,0.22,0.1,0.33,0.13c0.55,0.18,1.13-0.05,1.22-0.61c0.14-0.76,0.2-1.55,0.16-2.32
			C184.7,198.07,184.36,197.74,184.08,197.56z"/>
		<path class="st3" d="M186.03,199.12c-0.27,0.41-0.53,0.88-0.61,1.35c-0.06,0.33,0.11,0.79,0.33,1.06c0.36,0.43,0.88,0.26,1.01-0.3
			c0.13-0.58,0.21-1.18,0.34-1.91c-0.1-0.18-0.24-0.44-0.38-0.7C186.48,198.78,186.17,198.9,186.03,199.12z"/>
		<path class="st3" d="M181.51,197.99c-0.03-0.15-0.16-0.38-0.25-0.39c-0.14-0.01-0.39,0.12-0.42,0.24
			c-0.25,0.83-0.52,1.67-0.66,2.52c-0.06,0.37,0.29,0.61,0.72,0.65c0.41,0.03,0.52-0.21,0.56-0.53c0.07-0.49,0.14-0.98,0.21-1.46
			C181.61,198.66,181.58,198.32,181.51,197.99z"/>
		<path class="st3" d="M193.03,200.36c-0.34,0.51-0.71,1-1.02,1.52c-0.4,0.67-0.25,1.16,0.46,1.51c0.17,0.08,0.58-0.01,0.68-0.16
			C193.62,202.58,193.77,200.95,193.03,200.36z"/>
		<path class="st3" d="M195.69,203.03c0.04-0.21,0.05-0.43,0.07-0.66c-0.02-0.27-0.01-0.56-0.08-0.83c-0.05-0.2-0.18-0.37-0.28-0.55
			c-0.18,0.11-0.45,0.17-0.54,0.33c-0.24,0.43-0.41,0.9-0.61,1.35c-0.29,0.63-0.07,0.8,0.56,1.05
			C195.24,203.9,195.59,203.61,195.69,203.03z"/>
		<path class="st3" d="M187.87,201.42c-0.04,0.12,0.32,0.43,0.54,0.59c0.1,0.07,0.36,0.03,0.46-0.05c0.59-0.54,0.68-2.23,0.03-3.04
			C188.51,199.82,188.14,200.61,187.87,201.42z"/>
		<path class="st3" d="M197.66,202.39c-0.09-0.46-0.23-0.91-0.34-1.36c-0.82,0.17-0.93,1.01-0.9,2.7
			C197.54,203.86,197.88,203.49,197.66,202.39z"/>
		<path class="st3" d="M184.25,202.23c0.07,0.83,0.13,1.66,0.72,2.52c0.23-0.58,0.45-1.03,0.59-1.51c0.22-0.78,0.12-0.96-0.59-1.38
			C184.67,201.68,184.22,201.89,184.25,202.23z"/>
		<path class="st3" d="M180.89,204.54c0.08-0.01,0.16-0.02,0.24-0.03c0.41-0.86,0.65-1.74,0.37-2.77c-0.41,0.06-0.74,0.11-1.21,0.17
			C180.5,202.83,180.7,203.68,180.89,204.54z"/>
		<path class="st3" d="M186.66,204.91c0.81-0.58,1-1.34,1.11-2.1c0.02-0.14-0.38-0.44-0.62-0.48c-0.23-0.04-0.5,0.18-0.72,0.27
			C186.51,203.38,186.58,204.09,186.66,204.91z"/>
		<path class="st3" d="M189.79,202.32c0.48,0.31,0.95,0.46,1.19-0.07c0.34-0.75,0.47-1.56-0.05-2.49
			C190.51,200.7,190.15,201.51,189.79,202.32z"/>
		<path class="st3" d="M188.49,203.21c0.05,0.7,0.16,1.4,0.25,2.1c0.09,0.02,0.19,0.04,0.29,0.06c0.31-0.66,0.62-1.32,0.98-2.08
			c-0.43-0.15-0.76-0.31-1.12-0.37C188.77,202.89,188.48,203.11,188.49,203.21z"/>
		<path class="st3" d="M190.48,203.92c0.06,0.57,0.22,1.12,0.34,1.69c0.1,0,0.21,0.01,0.31,0.01c0.19-0.47,0.42-0.93,0.57-1.41
			c0.11-0.35-0.27-0.9-0.6-0.91C190.7,203.27,190.44,203.53,190.48,203.92z"/>
		<path class="st3" d="M182.11,201.76c0.24,0.83,0.47,1.62,0.7,2.4C183.72,202.62,183.51,201.93,182.11,201.76z"/>
		<path class="st3" d="M192.39,204.65c-0.11,0.33,0.1,0.77,0.17,1.16c0.08,0.01,0.17,0.03,0.25,0.05c0.23-0.49,0.47-0.98,0.7-1.47
			c-0.06-0.06-0.12-0.13-0.19-0.19C192.99,204.35,192.46,204.43,192.39,204.65z"/>
		<path class="st3" d="M194.29,206.01c0.08,0.01,0.17,0.03,0.25,0.04c0.2-0.45,0.4-0.9,0.63-1.43c-0.39-0.09-0.68-0.16-1.11-0.26
			C194.15,204.98,194.22,205.5,194.29,206.01z"/>
		<path class="st3" d="M196.37,206.08c0.06,0,0.12,0,0.18,0c0.23-0.46,0.46-0.92,0.71-1.43c-0.5,0.04-0.9,0.06-1.38,0.1
			C196.04,205.19,196.21,205.64,196.37,206.08z"/>
	</g>
</g>
</svg>
