<?xml version="1.0" encoding="utf-8"?>
<svg version="1.1" id="Layer_1" xmlns="http://www.w3.org/2000/svg" xmlns:xlink="http://www.w3.org/1999/xlink" x="0px" y="0px"
	 viewBox="0 0 303.48 238.72" style="enable-background:new 0 0 303.48 238.72;" xml:space="preserve">
<style type="text/css">
	.st0{fill:#231F20;}
	.st1{fill:#ED1C24;}
	.st2{fill:#BCBEC0;}
	.st3{fill:#FFFFFF;}
</style>
<path class="st0" d="M140.8,14.51L12.74,183.68c-13.44,17.75-1.73,44.38,19.52,44.38h119.47h119.47c21.25,0,32.96-26.62,19.52-44.38
	L162.68,14.51C157.19,7.26,146.29,7.26,140.8,14.51z"/>
<path class="st1" d="M293.22,181.8L165.17,12.63c-3.21-4.24-8.1-6.67-13.42-6.67s-10.21,2.43-13.42,6.67L10.26,181.8
	c-7.28,9.62-8.42,22.39-2.98,33.34c4.99,10.04,14.33,16.03,24.99,16.03h238.94c10.65,0,20-5.99,24.99-16.03
	C301.64,204.2,300.5,191.42,293.22,181.8z M290.62,212.37c-3.92,7.87-11.17,12.58-19.41,12.58H32.27c-8.24,0-15.49-4.7-19.41-12.58
	c-4.38-8.82-3.48-19.09,2.37-26.81L143.29,16.39c2.02-2.67,5.1-4.2,8.46-4.2s6.43,1.53,8.46,4.2l128.06,169.17
	C294.1,193.28,295,203.55,290.62,212.37z"/>
<polygon class="st1" points="76.45,100.73 227.04,100.73 158.56,10.4 146.81,9.07 "/>
<g>
	<g>
		<path class="st2" d="M188.84,137.7c-0.24-3.14-1.43-5.92-3.32-8.34c-1.25-1.6-2.96-2.83-3.91-4.7c-0.06-0.12-0.23-0.18-0.36-0.27
			c-0.54-0.38-1.1-0.72-1.61-1.13c-3.48-2.75-6.4-6.23-10.45-8.25c-2.05-1.02-4.05-2.32-6.22-2.87c-3.46-0.87-7.01-1.5-10.64-1.23
			c-2.38,0.18-4.75,0.21-7.12,0.73c-3.7,0.81-7.14,2.04-9.99,4.61c-2.33,2.1-4.61,4.23-5.69,7.33c-0.65,1.85-1.46,3.65-2.31,5.42
			c-0.5,1.04-0.82,2.34-2.16,2.68c-2.56,0.66-3.36,3.05-3.12,5.28c0.34,3.09-0.18,5.97-1.66,8.72c-0.37,0.69-0.37,1.57-0.53,2.37
			c-0.28,1.39-0.18,2.82-1.08,4.11c-1.51,2.17-0.15,5.06,2.46,5.56c0.74,0.14,1.47,0.39,2.22,0.59c0.97-1.25,1.63-2.91,1.62-4.36
			c0-0.35-0.24-0.82-0.52-1c-0.55-0.36-1.24-0.51-1.79-0.86c-0.28-0.17-0.4-0.59-0.59-0.9c0.2-0.11,0.45-0.38,0.59-0.33
			c0.96,0.37,1.77,0.16,2.59-0.43c0.66-0.48,1.42-0.12,1.39,0.63c-0.05,1.05-0.18,2.11-0.37,3.14c-0.17,0.9-0.46,1.78-0.74,2.66
			c-0.19,0.57-0.35,1.21-0.71,1.67c-0.81,1.04-0.64,2.06-0.34,2.94c0.83-0.07,1.64-0.39,2.17-0.12c0.58,0.29,0.89,1.11,1.33,1.71
			c0.76-0.76,1.11-2.24,2.68-2.06c1.53,0.18,1.71,1.54,2.11,2.7c1.9-1.58,3.1-1.06,3.43,1.13c0.56-0.63,1.05-1.2,1.56-1.76
			c0.49-0.55,1-1.08,1.5-1.62c0.13,0.08,0.26,0.15,0.39,0.23c-0.13,0.42-0.3,0.83-0.38,1.26c-0.07,0.38-0.13,0.81-0.04,1.17
			c0.11,0.43,0.39,0.81,0.61,1.23c0.72-0.82,1.41-1.62,2.11-2.41c0.08,0.03,0.16,0.07,0.24,0.11c0.03,0.28,0.2,0.64,0.08,0.83
			c-0.64,1.02,0.09,1.78,0.42,2.86c0.71-0.82,1.28-1.52,1.88-2.19c0.18-0.19,0.46-0.28,0.69-0.42c0.06,0.24,0.24,0.55,0.15,0.71
			c-0.55,1.01,0.08,1.66,0.63,2.42c0.53-0.4,0.99-0.79,1.49-1.13c0.49-0.34,0.91-0.96,1.79-0.55c-0.23,0.39-0.43,0.74-0.65,1.1
			c0.35,0.67,0.7,0.48,1.06-0.02c0.41-0.57,0.83-1.13,1.33-1.81c0.33,0.94-0.1,1.95,0.89,2.3c1.04-1.53,2.03-3.01,3.16-4.67
			c-0.54,0.02-0.83-0.05-1,0.06c-0.57,0.39-1.09,0.86-1.66,1.25c-0.22,0.15-0.53,0.15-0.8,0.22c0.05-0.27,0.01-0.6,0.16-0.8
			c0.43-0.58,0.94-1.11,1.6-1.87c-0.59,0.04-1.06-0.07-1.37,0.11c-0.65,0.37-1.23,0.87-1.81,1.35c-0.7,0.59-1.35,1.23-2.07,1.79
			c-0.17,0.13-0.51,0.03-0.77,0.04c0.12-0.24,0.2-0.53,0.38-0.72c0.53-0.59,1.09-1.16,1.67-1.71c0.62-0.59,1.23-1.21,1.93-1.69
			c0.82-0.57,1.79-0.63,2.59,0c1.05,0.83,2.23,1.28,3.52,1.46c1.86,0.27,3.74,0.77,5.57-0.21c0.94-0.51,1.88-1.02,2.81-1.54
			c0.37-0.21,0.72-0.49,1.12-0.62c1.7-0.54,3.42-0.61,5.21-0.38c1.61,0.21,2.74,0.92,3.58,2.25c0.84,1.32,0.74,2.81,0.87,4.26
			c0.01,0.13-0.09,0.29-0.18,0.41c-0.67,0.84-1.29,1.72-2.03,2.49c-1.09,1.15-1.4,2.68-0.74,4.1c0.19,0.41,0.31,0.88,0.36,1.33
			c0.08,0.72,0.38,1.13,1.14,1.18c0.33,0.02,0.65,0.16,0.96,0.24c3.11-3.03,5.18-6.65,6.44-10.79c1.62-5.33,2.33-10.91,4.6-16.04
			c0.41-0.92,0.9-1.84,1.08-2.82C188.81,143.16,189.04,140.45,188.84,137.7z M148.14,127.05c-1.53,0.66-2.89,1.25-4.26,1.81
			c-0.13,0.05-0.34-0.1-0.56-0.17C144.96,126.99,146.81,126.28,148.14,127.05z M135.06,125.73c0.88,0.32,1.77,0.66,2.59,1.11
			c0.34,0.19,0.52,0.69,0.77,1.05c-0.09,0.09-0.19,0.18-0.28,0.27c-0.23-0.06-0.47-0.09-0.68-0.19c-0.9-0.44-1.81-0.87-2.68-1.37
			c-0.24-0.14-0.35-0.49-0.52-0.74C134.53,125.81,134.84,125.65,135.06,125.73z M131.17,160.06c-0.15,0.08-0.43,0.08-0.55-0.01
			c-0.14-0.11-0.28-0.42-0.23-0.54c0.37-0.77,0.8-1.52,1.22-2.27C132.41,158.32,132.06,159.61,131.17,160.06z M139.78,154.89
			c-0.18,1.22-0.86,2.39-1.4,3.54c-0.11,0.23-0.74,0.48-0.93,0.38c-0.54-0.32-0.05-0.66,0.15-0.97c0.19-0.3,0.37-0.59,0.45-0.74
			c-1.13,0.2-2.3,0.39-3.54,0.61c0,0.39,1.37,0.69,0.39,1.6c-0.89-1.02-2.27-1.65-2.29-3.26c-0.01-0.42,0.12-0.83,0.15-1.25
			c0.07-1.04,0.12-2.08,0.17-3.12c-0.16-0.02-0.32-0.02-0.49-0.04c-0.23,0.87-0.5,1.73-0.68,2.62c-0.25,1.29-0.78,2.4-1.94,3.1
			c-0.35,0.21-0.79,0.29-1.35,0.32c1.22-0.93,0.56-1.86,0.25-2.81c-0.38-1.17-0.07-2.3,0.35-3.41c0.31-0.8,0.58-1.62,0.97-2.39
			c0.9-1.8,0.97-3.63,0.43-5.54c-0.3-1.07,0.34-1.92,1.45-1.89c0.68,0.01,1.17-0.12,1.57-0.71c0.12-0.19,0.49-0.22,0.74-0.31
			c-0.03,0.28,0.02,0.62-0.12,0.82c-0.37,0.51-0.27,0.93,0.02,1.43c0.97,1.67,2.01,3.22,3.5,4.56
			C139.82,149.36,140.18,152.13,139.78,154.89z M141.52,154.94c-0.28,0.63-0.36,1.57-1.56,1.42c0.4-1.51,0.78-2.92,1.17-4.35
			C141.89,152.71,142.06,153.71,141.52,154.94z M140.66,148.07c0.1-0.01,0.21-0.03,0.32-0.04c0.1,0.58,0.2,1.15,0.31,1.81
			C140.22,149.6,140.05,148.91,140.66,148.07z M144.83,163.22c-0.14-1.94,0.76-3.52,2.15-3.93
			C146.64,160.77,145.89,161.93,144.83,163.22z M154.4,153.26c-1.27,0.1-2.54,0.12-3.81,0.17c-0.53,0.02-1.09-0.02-1.59,0.13
			c-1.13,0.35-1.7,0.26-2.46-0.63c-0.71-0.85-1.41-1.71-2.05-2.61c-0.45-0.63-0.47-1.32,0.2-2.02c0.39,0.68,0.72,1.36,1.15,1.96
			c0.27,0.37,0.65,0.74,1.06,0.91c1.01,0.44,2.04,0.88,3.11,1.11c1.05,0.23,2.16,0.22,3.25,0.27c0.59,0.02,1.18-0.07,1.76-0.1
			c0.03,0.1,0.07,0.21,0.1,0.31C154.88,152.94,154.65,153.24,154.4,153.26z M161.18,141.78c-0.27,0.36-0.22,1-0.22,1.51
			c-0.02,0.74,0.09,1.47,0.08,2.21c-0.06,2.86-2.4,6.08-6.46,5.3c-3.1-0.59-6.08-1.5-8.46-3.74c-1.09-1.02-2.19-2.02-2.08-3.71
			c0.01-0.11,0.05-0.23,0.11-0.48c0.21,0.19,0.41,0.29,0.47,0.44c0.97,2.4,2.79,3.73,5.25,4.32c0.71,0.17,1.25-0.12,1.18-0.82
			c-0.06-0.57-0.27-1.24-0.65-1.63c-0.76-0.78-1.2-1.55-1.1-2.68c0.1-1.06-0.47-1.78-1.45-2.23c-0.85-0.39-1.67-0.86-2.53-1.31
			c-0.87,0.83,0,1.84-0.06,2.79c-1.2-0.07-1.59-1.43-1.04-3.59c-3.15-0.35-2.11-2.55-1.81-4.35c-1.22-0.41-1.73-0.06-1.69,1.04
			c0.01,0.21,0.03,0.46-0.06,0.64c-1.22,2.57-1.39,5.52-2.94,7.96c-0.08,0.12-0.17,0.24-0.43,0.59c-0.08-1.2-0.23-2.15,0.32-3.01
			c0.65-1.01,0.9-2.11,1.05-3.3c0.08-0.67,0.48-1.3,0.73-1.95c0.13-0.33,0.36-0.68,0.34-1c-0.02-0.24-0.36-0.54-0.62-0.63
			c-0.19-0.07-0.59,0.07-0.72,0.25c-0.82,1.15-1.57,2.35-2.39,3.5c-0.17,0.24-0.56,0.32-0.85,0.48c0.02-0.3-0.05-0.65,0.09-0.89
			c0.69-1.19,1.46-2.34,2.14-3.54c0.18-0.32,0.15-0.75,0.22-1.13c-0.45,0.08-1.07,0-1.32,0.26c-0.6,0.64-1.11,1.4-1.49,2.2
			c-0.93,1.93-2.01,3.71-3.7,5.1c-1.05,0.87-1.17,2.17-1.25,3.45c-0.06,1.01-0.09,2.02-0.25,3.02c-0.06,0.38-0.45,0.7-0.69,1.04
			c-0.09-0.04-0.17-0.07-0.26-0.11c0.03-0.68,0.06-1.35,0.1-2.11c-0.82,0.62-1.49,1.25-2.28,1.69c-0.76,0.43-1.62,0.73-2.47,0.97
			c-0.77,0.22-1.45-0.12-1.96-0.74c-0.5-0.61-0.58-1.3-0.23-1.98c1.15-2.22,1.71-4.51,1.19-7.02c-0.14-0.68-0.07-1.42,0.03-2.11
			c0.39-2.64,2.09-4.12,5.06-4.46c0.55-0.06,1.11-0.15,1.65-0.11c2.28,0.17,2.98,0.98,3.42,3.96c0.72-1.17,1.33-2.23,2.01-3.23
			c1.17-1.73,2.47-1.81,3.78-0.23c0.56,0.67,1.03,0.77,1.79,0.24c1.52-1.06,2.99-0.34,3.28,1.5c0.04,0.27,0.04,0.56,0.12,0.82
			c0.1,0.34,0.24,0.66,0.37,0.99c0.49-0.26,1.01-0.46,1.44-0.79c0.19-0.15,0.2-0.57,0.24-0.87c0.27-2.17,2.31-3.04,4.13-2.56
			c1.2,0.32,2.43,0.76,3.46,1.42c1.47,0.95,2.96,1.35,4.69,1.27c2.21-0.11,3.33,1.09,3.52,3.31
			C162.11,139.2,162.12,140.54,161.18,141.78z M165.4,151.42c0.01,0.27-0.12,0.55-0.19,0.82c-0.24-0.18-0.51-0.34-0.71-0.56
			c-0.46-0.51-0.46-1.11-0.13-1.68c0.16-0.27,0.43-0.47,0.65-0.7c0.14,0.26,0.27,0.52,0.41,0.77c-0.06,0.03-0.13,0.06-0.2,0.09
			C165.29,150.58,165.39,151,165.4,151.42z M178.15,162.08c-0.06,0.31-0.23,0.61-0.35,0.91c-0.11,0.01-0.22,0.02-0.33,0.04
			c-0.2-0.49-0.51-0.96-0.58-1.46c-0.48-3.16-1.62-4.45-4.78-5.08c-1.16-0.23-2.06-0.74-2.79-1.62c-0.83-0.99-1.69-1.96-2.5-2.96
			c-1.01-1.23-0.71-2.67-0.57-4.07c0.13-1.31,0.35-2.61,0.47-3.92c0.04-0.45,0.04-1.02-0.2-1.34c-1.09-1.51-0.54-3.26-0.86-4.87
			c-0.15-0.75-0.4-1.55-0.84-2.16c-1.61-2.22-1.16-5.41,1.08-6.99c0.15-0.1,0.28-0.25,0.45-0.32c0.26-0.1,0.55-0.23,0.8-0.19
			c0.17,0.03,0.44,0.45,0.39,0.52c-0.15,0.21-0.4,0.39-0.64,0.5c-1.34,0.61-2.03,2.47-1.34,3.82c0.87,1.69,1.85,3.34,1.96,5.31
			c0.02,0.27-0.03,0.55,0,0.82c0.08,0.62,0.01,1.32,0.3,1.83c1.2,2.13,1.67,4.31,0.98,6.72c-0.52,1.78-0.05,3.33,1.35,4.58
			c0.45,0.41,0.86,0.88,1.27,1.34c0.64,0.72,1.36,1.22,2.36,1.47C176.64,155.69,178.75,159.22,178.15,162.08z"/>
		<path class="st2" d="M174.73,163.03c-0.01-0.05,0.02-0.12,0.06-0.17c0.33-0.49,0.01-0.79-0.36-0.95c-0.9-0.37-1.84-0.65-2.74-1.01
			c-0.79-0.32-1.41-0.03-1.86,0.57c-0.32,0.43-0.51,0.96-0.73,1.46c-0.34,0.78-0.59,1.62-1.01,2.36c-0.49,0.87-1.3,1.45-2.35,1.35
			c-1.04-0.11-1.42-0.95-1.66-1.86c-0.08-0.29-0.18-0.61-0.38-0.83c-0.21-0.23-0.53-0.46-0.83-0.49c-1.09-0.12-2.09,0.75-2.25,1.83
			c-0.16,1.03-0.16,2.16-0.6,3.06c-1.46,2.97-3.02,5.9-4.68,8.77c-0.9,1.55-2.48,2.15-4.26,2.1c-0.46-0.02-0.92-0.24-1.38-0.37
			c0.01-0.12,0.01-0.24,0.02-0.35c1.18-0.28,2.36-0.57,3.53-0.85c0.03-0.13,0.07-0.25,0.1-0.38c-0.81-0.58-1.61-1.15-2.42-1.72
			c-0.1,0.08-0.21,0.16-0.31,0.24c0.12,0.29,0.29,0.58,0.34,0.89c0.04,0.24-0.02,0.52-0.11,0.75c-0.02,0.06-0.35,0.09-0.46,0.02
			c-0.85-0.62-1.69-1.26-2.76-2.07c-0.05,0.56-0.12,0.96-0.12,1.35c0,0.4,0.08,0.8,0.12,1.2c-0.09,0.03-0.18,0.05-0.28,0.08
			c-0.73-0.83-1.45-1.66-2.11-2.41c-1.02,0.45-0.64,0.98-0.57,1.46c0.07,0.46,0.1,0.94,0.14,1.41c-0.14,0.06-0.27,0.12-0.41,0.17
			c-0.42-1.37-1.19-2.45-2.52-3.15c0.16,0.69,0.33,1.37,0.49,2.05c-0.13,0.07-0.25,0.14-0.38,0.22c-0.89-1.06-1.78-2.12-2.7-3.22
			c-0.29,0.33-0.56,0.61-0.7,0.77c0.12,0.75,0.22,1.36,0.31,1.96c-0.12,0.04-0.23,0.07-0.34,0.1c-1.23-0.91-1.81-2.25-2.25-3.64
			c-0.63,0.44-1.2,1.16-1.79,1.17c-0.52,0.01-1.06-0.77-1.41-1.05c-0.64,0.18-1.29,0.59-1.76,0.45c-0.56-0.18-0.98-0.84-1.38-1.21
			c-0.42,0.36-0.87,1.05-1.26,1.02c-0.49-0.04-0.92-0.67-1.38-1.05c-1.11,1.72-1.7,1.82-3.05,0.36c-0.1,0.55-0.2,0.96-0.24,1.37
			c-0.16,1.49-0.41,2.9-1.62,3.99c-0.3,0.27-0.36,0.88-0.39,1.34c-0.1,1.46-0.05,2.93-0.19,4.38c-0.18,1.83,0.54,2.94,2.33,3.22
			c0.82,0.13,1.65,0.16,2.48,0.21c1.75,0.1,3.53-0.02,5.24,0.3c4.36,0.81,8.69,1.57,13.16,1.02c2.28-0.28,4.64-0.07,6.88-0.54
			c3.32-0.69,6.58-1.74,9.61-3.36c1.86-0.99,3.44-2.29,4.33-4.25c0.9-1.98,1.81-3.96,2.57-6c1.1-2.97,2.54-5.7,4.67-8.07
			C174.11,165.92,175.35,164.84,174.73,163.03z M127.73,179.06c-0.3-1.41,0-2.44,0.92-3.06
			C128.84,177.23,128.63,178.19,127.73,179.06z M131.9,178.84c-0.11-0.02-0.23-0.04-0.34-0.07c0.14-0.76,0.28-1.52,0.42-2.28
			c0.12,0.02,0.23,0.04,0.35,0.07C132.31,177.35,132.39,178.15,131.9,178.84z M135.77,179.28c-0.24-0.45-0.79-0.93-0.01-1.54
			c0.44,0.79,0.85,1.52,1.26,2.27C136.3,180.21,136.28,180.22,135.77,179.28z M142.13,183.7c-0.73,0.76-1.8,0.93-2.87,0.45
			c0.26-0.55,0.45-1.07,0.74-1.53c0.14-0.23,0.59-0.55,0.68-0.49c0.83,0.51,1.4-0.02,2.01-0.58
			C143.11,182.56,142.65,183.16,142.13,183.7z M165.54,178.07c-0.22,0.72-0.46,1.44-0.72,2.14c-0.12,0.33-0.26,0.7-0.49,0.95
			c-0.64,0.7-1.31,1.38-2.02,2c-0.25,0.23-0.67,0.28-1,0.42c-0.06-0.09-0.11-0.17-0.18-0.26c0.14-0.26,0.21-0.61,0.42-0.77
			c1.7-1.28,2.42-3.16,3.17-5.04c0.17-0.43,0.52-0.8,0.79-1.19c0.14,0.06,0.27,0.12,0.41,0.17
			C165.79,177.03,165.7,177.56,165.54,178.07z"/>
		<path class="st2" d="M130.44,162.35c-0.14-0.09-0.81,0.35-1.01,0.68c-0.76,1.31-1.43,2.69-2.18,4.12
			c0.63,0.29,1.07,0.49,1.52,0.69c0.17,0.08,0.34,0.15,0.51,0.21c0.84,0.27,1.73-0.08,1.88-0.94c0.21-1.16,0.3-2.37,0.25-3.55
			C131.39,163.13,130.87,162.63,130.44,162.35z"/>
		<path class="st2" d="M133.43,164.75c-0.41,0.63-0.81,1.34-0.93,2.07c-0.09,0.51,0.17,1.21,0.51,1.62c0.56,0.66,1.36,0.4,1.55-0.46
			c0.2-0.89,0.32-1.8,0.52-2.92c-0.15-0.27-0.36-0.67-0.58-1.08C134.13,164.23,133.65,164.41,133.43,164.75z"/>
		<path class="st2" d="M126.5,163.02c-0.05-0.23-0.24-0.58-0.39-0.6c-0.21-0.01-0.59,0.19-0.65,0.37c-0.39,1.28-0.79,2.56-1.01,3.87
			c-0.09,0.56,0.45,0.94,1.1,0.99c0.62,0.05,0.79-0.32,0.86-0.82c0.11-0.76,0.21-1.51,0.32-2.24
			C126.65,164.04,126.61,163.52,126.5,163.02z"/>
		<path class="st2" d="M144.16,166.65c-0.53,0.78-1.09,1.53-1.56,2.33c-0.61,1.03-0.39,1.79,0.71,2.31
			c0.27,0.12,0.89-0.02,1.05-0.24C145.06,170.05,145.3,167.55,144.16,166.65z"/>
		<path class="st2" d="M148.24,170.75c0.05-0.33,0.07-0.67,0.1-1.01c-0.03-0.42-0.02-0.86-0.12-1.27c-0.07-0.3-0.28-0.57-0.42-0.85
			c-0.28,0.17-0.69,0.26-0.83,0.5c-0.37,0.66-0.63,1.38-0.94,2.07c-0.44,0.97-0.11,1.22,0.85,1.61
			C147.56,172.08,148.09,171.63,148.24,170.75z"/>
		<path class="st2" d="M136.25,168.28c-0.07,0.19,0.5,0.66,0.84,0.9c0.15,0.11,0.55,0.05,0.7-0.08c0.91-0.83,1.04-3.41,0.05-4.67
			C137.23,165.83,136.67,167.03,136.25,168.28z"/>
		<path class="st2" d="M151.26,169.76c-0.14-0.7-0.35-1.39-0.52-2.08c-1.26,0.26-1.42,1.56-1.38,4.14
			C151.07,172.01,151.61,171.45,151.26,169.76z"/>
		<path class="st2" d="M130.69,169.53c0.1,1.27,0.2,2.55,1.1,3.87c0.35-0.88,0.69-1.58,0.9-2.32c0.34-1.19,0.18-1.47-0.9-2.12
			C131.34,168.68,130.65,169,130.69,169.53z"/>
		<path class="st2" d="M125.55,173.06c0.12-0.02,0.24-0.03,0.36-0.05c0.63-1.31,0.99-2.66,0.56-4.24c-0.63,0.09-1.13,0.16-1.85,0.26
			C124.95,170.43,125.25,171.75,125.55,173.06z"/>
		<path class="st2" d="M134.39,173.63c1.24-0.88,1.54-2.05,1.7-3.22c0.03-0.21-0.59-0.68-0.95-0.74c-0.35-0.05-0.76,0.27-1.1,0.41
			C134.16,171.29,134.27,172.38,134.39,173.63z"/>
		<path class="st2" d="M139.19,169.66c0.74,0.47,1.45,0.7,1.83-0.11c0.53-1.15,0.73-2.39-0.08-3.82
			C140.3,167.18,139.75,168.42,139.19,169.66z"/>
		<path class="st2" d="M137.2,171.02c0.08,1.08,0.24,2.15,0.38,3.22c0.15,0.03,0.29,0.06,0.44,0.09c0.48-1.01,0.95-2.02,1.51-3.19
			c-0.65-0.23-1.17-0.47-1.72-0.57C137.63,170.53,137.19,170.87,137.2,171.02z"/>
		<path class="st2" d="M140.26,172.11c0.1,0.87,0.34,1.72,0.52,2.59c0.16,0.01,0.32,0.01,0.48,0.02c0.3-0.72,0.64-1.43,0.88-2.17
			c0.17-0.54-0.41-1.38-0.91-1.4C140.58,171.12,140.19,171.51,140.26,172.11z"/>
		<path class="st2" d="M127.42,168.79c0.37,1.27,0.72,2.48,1.07,3.68C129.89,170.11,129.56,169.06,127.42,168.79z"/>
		<path class="st2" d="M143.17,173.23c-0.17,0.51,0.15,1.18,0.26,1.79c0.13,0.02,0.26,0.05,0.38,0.07c0.36-0.75,0.72-1.5,1.07-2.25
			c-0.1-0.1-0.19-0.19-0.29-0.29C144.11,172.77,143.3,172.89,143.17,173.23z"/>
		<path class="st2" d="M146.1,175.31c0.13,0.02,0.26,0.04,0.39,0.06c0.31-0.7,0.61-1.39,0.96-2.19c-0.6-0.14-1.05-0.25-1.7-0.41
			C145.88,173.74,145.99,174.53,146.1,175.31z"/>
		<path class="st2" d="M149.28,175.43c0.09,0,0.19,0,0.28,0c0.35-0.71,0.7-1.42,1.09-2.19c-0.77,0.05-1.39,0.1-2.12,0.15
			C148.78,174.07,149.03,174.75,149.28,175.43z"/>
	</g>
	<g>
		<path class="st2" d="M106.68,120.96H86.49l-22.79,35.21v13.05H91v13.4h15.69v-13.39l6.64,0.08v-13.85h-6.64V120.96z M79.14,155.46
			l10.03-15.29c0.85-1.45,1.48-2.51,1.87-3.19c-0.03,0.7-0.04,1.38-0.04,2.03v16.45H79.14z"/>
		<path class="st2" d="M233.14,155.46v-34.5h-20.19l-22.79,35.21v13.05h27.29v13.4h15.69v-13.39l6.64,0.08v-13.85H233.14z
			 M205.6,155.46l10.03-15.29c0.85-1.45,1.47-2.51,1.87-3.19c-0.03,0.7-0.04,1.38-0.04,2.03v16.45H205.6z"/>
	</g>
</g>
<g>
	<g>
		<path class="st3" d="M66.23,218.57v-21.52h6.81l3.58,7.55c0.19,0.45,0.41,0.96,0.66,1.53c0.25,0.58,0.52,1.24,0.81,1.99l0.74,1.9
			c-0.26-1.87-0.46-3.46-0.6-4.79c-0.14-1.33-0.21-2.44-0.21-3.34v-4.84h6.81v21.52h-6.81l-3.6-7.92c-0.38-0.85-0.72-1.64-1.02-2.38
			c-0.3-0.74-0.57-1.44-0.8-2.11c0.15,1.51,0.26,2.83,0.33,3.96s0.1,2.11,0.1,2.95v5.49H66.23z"/>
		<path class="st3" d="M108.25,207.88c0,3.28-0.92,5.95-2.76,8c-1.83,2.04-4.21,3.07-7.14,3.07c-2.6,0-4.83-0.78-6.69-2.35
			c-2.34-1.99-3.51-4.97-3.51-8.95c0-3.81,1.22-6.72,3.66-8.74c1.81-1.5,3.97-2.24,6.45-2.24c3.05,0,5.47,1.01,7.28,3.04
			C107.34,201.73,108.25,204.45,108.25,207.88z M100.83,207.92c0-3.89-0.84-5.84-2.53-5.84c-0.85,0-1.52,0.51-2.02,1.53
			c-0.49,0.95-0.74,2.34-0.74,4.18c0,1.81,0.23,3.22,0.69,4.21c0.46,1,1.1,1.5,1.93,1.5c0.84,0,1.5-0.49,1.95-1.48
			C100.59,211.05,100.83,209.68,100.83,207.92z"/>
		<path class="st3" d="M120.73,218.57h-7.14v-16.36h-3.94v-5.16h15.17v5.16h-4.09V218.57z"/>
		<path class="st3" d="M144.35,218.57h-7.14v-21.52h12.62v5.06h-5.48v3.13h5.1v4.86h-5.1V218.57z"/>
		<path class="st3" d="M172,207.88c0,3.28-0.92,5.95-2.76,8c-1.83,2.04-4.21,3.07-7.14,3.07c-2.6,0-4.83-0.78-6.69-2.35
			c-2.34-1.99-3.51-4.97-3.51-8.95c0-3.81,1.22-6.72,3.67-8.74c1.81-1.5,3.96-2.24,6.45-2.24c3.05,0,5.47,1.01,7.28,3.04
			S172,204.45,172,207.88z M164.59,207.92c0-3.89-0.84-5.84-2.53-5.84c-0.85,0-1.52,0.51-2.02,1.53c-0.49,0.95-0.74,2.34-0.74,4.18
			c0,1.81,0.23,3.22,0.69,4.21c0.46,1,1.1,1.5,1.93,1.5c0.84,0,1.49-0.49,1.95-1.48C164.35,211.05,164.59,209.68,164.59,207.92z"/>
		<path class="st3" d="M185.84,197.05h7.14v15.22c0,1.27-0.25,2.3-0.74,3.09c-0.48,0.83-1.28,1.57-2.4,2.24
			c-1.51,0.89-3.34,1.34-5.5,1.34c-2.44,0-4.49-0.49-6.15-1.48c-2.1-1.25-3.15-3.26-3.15-6.02v-14.39h7.14v13.88
			c0,0.94,0.14,1.6,0.42,1.99c0.28,0.39,0.75,0.58,1.41,0.58c0.69,0,1.16-0.18,1.42-0.54c0.26-0.38,0.39-1.05,0.39-2.02V197.05z"/>
		<path class="st3" d="M196.68,218.57v-21.52h6.81l3.58,7.55c0.19,0.45,0.41,0.96,0.66,1.53c0.25,0.58,0.52,1.24,0.81,1.99l0.74,1.9
			c-0.26-1.87-0.46-3.46-0.6-4.79c-0.14-1.33-0.21-2.44-0.21-3.34v-4.84h6.81v21.52h-6.81l-3.6-7.92c-0.38-0.85-0.72-1.64-1.02-2.38
			s-0.57-1.44-0.8-2.11c0.15,1.51,0.26,2.83,0.33,3.96s0.1,2.11,0.1,2.95v5.49H196.68z"/>
		<path class="st3" d="M218.99,218.57v-21.52h6.16c3.53,0,6.27,0.77,8.24,2.31c2.58,2.02,3.87,4.83,3.87,8.46
			c0,3.57-1.09,6.32-3.27,8.26c-1.86,1.65-4.63,2.48-8.32,2.48H218.99z M226.12,213.37c2.56-0.1,3.84-1.9,3.84-5.38
			c0-1.72-0.33-3.08-0.98-4.07c-0.65-1-1.53-1.5-2.64-1.5h-0.22V213.37z"/>
	</g>
	<g>
		<path class="st3" d="M154.45,69.97h-5.74l-5.01-35.99c-0.14-1.46-0.28-2.75-0.42-3.86c-0.14-1.11-0.21-2.09-0.21-2.92
			c0-1.95,0.59-3.58,1.77-4.9c1.18-1.32,3.48-1.98,6.88-1.98c3.2,0,5.44,0.66,6.73,1.98c1.29,1.32,1.93,3.02,1.93,5.11
			c0,0.9-0.05,1.93-0.16,3.08c-0.1,1.15-0.23,2.31-0.37,3.49L154.45,69.97z M151.43,90.94c-2.71,0-4.75-0.63-6.1-1.88
			c-1.36-1.25-2.03-3.09-2.03-5.53c0-2.43,0.66-4.36,1.98-5.79c1.32-1.42,3.37-2.14,6.15-2.14c2.64,0,4.66,0.71,6.05,2.14
			c1.39,1.43,2.05,3.39,1.98,5.89c-0.07,2.5-0.75,4.35-2.03,5.53C156.14,90.35,154.14,90.94,151.43,90.94z"/>
	</g>
</g>
</svg>
