<svg version="1.1" id="Layer_1" xmlns="http://www.w3.org/2000/svg" xmlns:xlink="http://www.w3.org/1999/xlink"
	 viewBox="0 0 76.4 81.62" xml:space="preserve">
<g>
	<path class="st0" d="M73.93,28.28c-0.24-3.14-1.43-5.92-3.32-8.34c-1.25-1.6-2.96-2.83-3.91-4.7c-0.06-0.12-0.23-0.18-0.36-0.27
		c-0.54-0.38-1.1-0.72-1.61-1.13c-3.48-2.75-6.4-6.23-10.45-8.25c-2.05-1.02-4.05-2.32-6.22-2.87c-3.46-0.87-7.01-1.5-10.64-1.23
		c-2.38,0.18-4.75,0.21-7.12,0.73c-3.7,0.81-7.14,2.04-9.99,4.61c-2.33,2.1-4.61,4.23-5.69,7.33c-0.65,1.85-1.46,3.65-2.31,5.42
		c-0.5,1.04-0.82,2.34-2.16,2.68c-2.56,0.66-3.36,3.05-3.12,5.28c0.34,3.09-0.18,5.97-1.66,8.72c-0.37,0.69-0.37,1.57-0.53,2.37
		c-0.28,1.39-0.18,2.82-1.08,4.11c-1.51,2.17-0.15,5.06,2.46,5.56c0.74,0.14,1.47,0.39,2.22,0.59c0.97-1.25,1.63-2.91,1.62-4.36
		c0-0.35-0.24-0.82-0.52-1C9,43.18,8.31,43.03,7.75,42.68c-0.28-0.17-0.4-0.59-0.59-0.9c0.2-0.11,0.45-0.38,0.59-0.33
		c0.96,0.37,1.77,0.16,2.59-0.43c0.66-0.48,1.42-0.12,1.39,0.63c-0.05,1.05-0.18,2.11-0.37,3.14c-0.17,0.9-0.46,1.78-0.74,2.66
		c-0.19,0.57-0.35,1.21-0.71,1.67c-0.81,1.04-0.64,2.06-0.34,2.94c0.83-0.07,1.64-0.39,2.17-0.12c0.58,0.29,0.89,1.11,1.33,1.71
		c0.76-0.76,1.11-2.24,2.68-2.06c1.53,0.18,1.71,1.54,2.11,2.7c1.9-1.58,3.1-1.06,3.43,1.13c0.56-0.63,1.05-1.2,1.56-1.76
		c0.49-0.55,1-1.08,1.5-1.62c0.13,0.08,0.26,0.15,0.39,0.23c-0.13,0.42-0.3,0.83-0.38,1.26c-0.07,0.38-0.13,0.81-0.04,1.17
		c0.11,0.43,0.39,0.81,0.61,1.23c0.72-0.82,1.41-1.62,2.11-2.41c0.08,0.03,0.16,0.07,0.24,0.11c0.03,0.28,0.2,0.64,0.08,0.83
		c-0.64,1.02,0.09,1.78,0.42,2.86c0.71-0.82,1.28-1.52,1.88-2.19c0.18-0.19,0.46-0.28,0.69-0.42c0.06,0.24,0.24,0.55,0.15,0.71
		c-0.55,1.01,0.08,1.66,0.63,2.42c0.53-0.4,0.99-0.79,1.49-1.13c0.49-0.34,0.91-0.96,1.79-0.55c-0.23,0.39-0.43,0.74-0.65,1.1
		c0.35,0.67,0.7,0.48,1.06-0.02c0.41-0.57,0.83-1.13,1.33-1.81c0.33,0.94-0.1,1.95,0.89,2.3c1.04-1.53,2.03-3.01,3.16-4.67
		c-0.54,0.02-0.83-0.05-1,0.06c-0.57,0.39-1.09,0.86-1.66,1.25c-0.22,0.15-0.53,0.15-0.8,0.22c0.05-0.27,0.01-0.6,0.16-0.8
		c0.43-0.58,0.94-1.11,1.6-1.87c-0.59,0.04-1.06-0.07-1.37,0.11c-0.65,0.37-1.23,0.87-1.81,1.35c-0.7,0.59-1.35,1.23-2.07,1.79
		c-0.17,0.13-0.51,0.03-0.77,0.04c0.12-0.24,0.2-0.53,0.38-0.72c0.53-0.59,1.09-1.16,1.67-1.71c0.62-0.59,1.23-1.21,1.93-1.69
		c0.82-0.57,1.79-0.63,2.59,0c1.05,0.83,2.23,1.28,3.52,1.46c1.86,0.27,3.74,0.77,5.57-0.21c0.94-0.51,1.88-1.02,2.81-1.54
		c0.37-0.21,0.72-0.49,1.12-0.62c1.7-0.54,3.42-0.61,5.21-0.38c1.61,0.21,2.74,0.92,3.58,2.25c0.84,1.32,0.74,2.81,0.87,4.26
		c0.01,0.13-0.09,0.29-0.18,0.41c-0.67,0.84-1.29,1.72-2.03,2.49c-1.09,1.15-1.4,2.68-0.74,4.1c0.19,0.41,0.31,0.87,0.36,1.33
		c0.08,0.72,0.38,1.13,1.14,1.18c0.33,0.02,0.65,0.16,0.96,0.24c3.11-3.03,5.18-6.65,6.44-10.79c1.62-5.33,2.33-10.91,4.6-16.04
		c0.41-0.92,0.9-1.84,1.08-2.82C73.9,33.74,74.14,31.03,73.93,28.28z M33.24,17.63c-1.53,0.66-2.89,1.25-4.26,1.81
		c-0.13,0.05-0.34-0.1-0.56-0.17C30.05,17.57,31.91,16.86,33.24,17.63z M20.16,16.31c0.88,0.32,1.77,0.66,2.59,1.11
		c0.34,0.19,0.52,0.69,0.77,1.05c-0.09,0.09-0.19,0.18-0.28,0.27c-0.23-0.06-0.47-0.09-0.68-0.19c-0.9-0.44-1.81-0.87-2.68-1.37
		c-0.24-0.14-0.35-0.49-0.52-0.74C19.63,16.39,19.94,16.23,20.16,16.31z M16.27,50.64c-0.15,0.08-0.43,0.08-0.55-0.01
		c-0.14-0.11-0.28-0.42-0.23-0.54c0.37-0.77,0.8-1.52,1.22-2.27C17.51,48.9,17.16,50.19,16.27,50.64z M24.88,45.47
		c-0.18,1.22-0.86,2.39-1.4,3.54c-0.11,0.23-0.74,0.48-0.93,0.38c-0.54-0.32-0.05-0.66,0.15-0.97c0.19-0.3,0.37-0.59,0.45-0.74
		c-1.13,0.2-2.3,0.39-3.54,0.61c0,0.39,1.37,0.69,0.39,1.6c-0.89-1.02-2.27-1.65-2.29-3.26c-0.01-0.42,0.12-0.83,0.15-1.25
		c0.07-1.04,0.12-2.08,0.17-3.12c-0.16-0.02-0.32-0.02-0.49-0.04c-0.23,0.87-0.5,1.73-0.68,2.62c-0.25,1.29-0.78,2.4-1.94,3.1
		c-0.35,0.21-0.79,0.29-1.35,0.32c1.22-0.93,0.56-1.86,0.25-2.81c-0.38-1.17-0.07-2.3,0.35-3.41c0.31-0.8,0.58-1.62,0.97-2.39
		c0.9-1.8,0.97-3.63,0.43-5.54c-0.3-1.07,0.34-1.92,1.45-1.89c0.68,0.01,1.17-0.12,1.57-0.71c0.12-0.19,0.49-0.22,0.74-0.31
		c-0.03,0.28,0.02,0.62-0.12,0.82c-0.37,0.51-0.27,0.93,0.02,1.43c0.97,1.67,2.01,3.22,3.5,4.56
		C24.92,39.94,25.28,42.71,24.88,45.47z M26.61,45.52c-0.28,0.63-0.36,1.57-1.56,1.42c0.4-1.51,0.78-2.92,1.17-4.35
		C26.98,43.29,27.15,44.29,26.61,45.52z M25.76,38.65c0.1-0.01,0.21-0.03,0.32-0.04c0.1,0.58,0.2,1.15,0.31,1.81
		C25.31,40.18,25.15,39.49,25.76,38.65z M29.93,53.8c-0.14-1.94,0.76-3.52,2.15-3.93C31.73,51.35,30.98,52.51,29.93,53.8z
		 M39.49,43.84c-1.27,0.1-2.54,0.12-3.81,0.17c-0.53,0.02-1.09-0.02-1.59,0.13c-1.13,0.35-1.7,0.26-2.46-0.63
		c-0.71-0.85-1.41-1.71-2.05-2.61c-0.45-0.63-0.47-1.32,0.2-2.02c0.39,0.68,0.72,1.36,1.15,1.96c0.27,0.37,0.65,0.74,1.06,0.91
		c1.01,0.44,2.04,0.88,3.11,1.11c1.05,0.23,2.16,0.22,3.25,0.27c0.59,0.02,1.18-0.07,1.76-0.1c0.03,0.1,0.07,0.21,0.1,0.31
		C39.98,43.53,39.75,43.82,39.49,43.84z M46.28,32.36c-0.27,0.36-0.22,1-0.22,1.51c-0.02,0.74,0.09,1.47,0.08,2.21
		c-0.06,2.86-2.4,6.08-6.46,5.3c-3.1-0.59-6.08-1.5-8.46-3.74c-1.09-1.02-2.19-2.02-2.08-3.71c0.01-0.11,0.05-0.23,0.11-0.48
		c0.21,0.19,0.41,0.29,0.47,0.44c0.97,2.4,2.79,3.73,5.25,4.32c0.71,0.17,1.25-0.12,1.18-0.82c-0.06-0.57-0.27-1.24-0.65-1.63
		c-0.76-0.78-1.2-1.55-1.1-2.68c0.1-1.06-0.47-1.78-1.45-2.23c-0.85-0.39-1.67-0.86-2.53-1.31c-0.87,0.83,0,1.84-0.06,2.79
		c-1.2-0.07-1.59-1.43-1.04-3.59c-3.15-0.35-2.11-2.55-1.81-4.35c-1.22-0.41-1.73-0.06-1.69,1.04c0.01,0.21,0.03,0.46-0.06,0.64
		c-1.22,2.57-1.39,5.52-2.94,7.96c-0.08,0.12-0.17,0.24-0.43,0.59c-0.08-1.2-0.23-2.15,0.32-3.01c0.65-1.01,0.9-2.11,1.05-3.3
		c0.08-0.67,0.48-1.3,0.73-1.95c0.13-0.33,0.36-0.68,0.34-1c-0.02-0.24-0.36-0.54-0.62-0.63c-0.19-0.07-0.59,0.07-0.72,0.25
		c-0.82,1.15-1.57,2.35-2.39,3.5c-0.17,0.24-0.56,0.32-0.85,0.48c0.02-0.3-0.05-0.65,0.09-0.89c0.69-1.19,1.46-2.34,2.14-3.54
		c0.18-0.32,0.15-0.75,0.22-1.13c-0.45,0.08-1.07,0-1.32,0.26c-0.6,0.64-1.11,1.4-1.49,2.2c-0.93,1.93-2.01,3.71-3.7,5.1
		c-1.05,0.87-1.17,2.17-1.25,3.45c-0.06,1.01-0.09,2.02-0.25,3.02c-0.06,0.38-0.45,0.7-0.69,1.04c-0.09-0.04-0.17-0.07-0.26-0.11
		c0.03-0.68,0.06-1.35,0.1-2.11c-0.82,0.62-1.49,1.25-2.28,1.69c-0.76,0.43-1.62,0.73-2.47,0.97c-0.77,0.22-1.45-0.12-1.96-0.74
		c-0.5-0.61-0.58-1.3-0.23-1.98c1.15-2.22,1.71-4.51,1.19-7.02c-0.14-0.68-0.07-1.42,0.03-2.11c0.39-2.64,2.09-4.12,5.06-4.46
		c0.55-0.06,1.11-0.15,1.65-0.11c2.28,0.17,2.98,0.98,3.42,3.96c0.72-1.17,1.33-2.23,2.01-3.23c1.17-1.73,2.47-1.81,3.78-0.23
		c0.56,0.67,1.03,0.77,1.79,0.24c1.52-1.06,2.99-0.34,3.28,1.5c0.04,0.27,0.04,0.56,0.12,0.82c0.1,0.34,0.24,0.66,0.37,0.99
		c0.49-0.26,1.01-0.46,1.44-0.79c0.19-0.15,0.2-0.57,0.24-0.87c0.27-2.17,2.31-3.04,4.13-2.56c1.2,0.32,2.43,0.76,3.46,1.42
		c1.47,0.95,2.96,1.35,4.69,1.27c2.21-0.11,3.33,1.09,3.52,3.31C47.2,29.78,47.22,31.12,46.28,32.36z M50.49,42
		c0.01,0.27-0.12,0.55-0.19,0.82c-0.24-0.18-0.51-0.34-0.71-0.56c-0.46-0.51-0.46-1.11-0.13-1.68c0.16-0.27,0.43-0.47,0.65-0.7
		c0.14,0.26,0.27,0.52,0.41,0.77c-0.06,0.03-0.13,0.06-0.2,0.09C50.39,41.16,50.49,41.58,50.49,42z M63.25,52.66
		c-0.06,0.31-0.23,0.61-0.35,0.91c-0.11,0.01-0.22,0.02-0.33,0.04c-0.2-0.49-0.51-0.96-0.58-1.46c-0.48-3.16-1.62-4.45-4.78-5.08
		c-1.16-0.23-2.06-0.74-2.79-1.62c-0.83-0.99-1.69-1.96-2.5-2.96c-1.01-1.23-0.71-2.67-0.57-4.07c0.13-1.31,0.35-2.61,0.47-3.92
		c0.04-0.45,0.04-1.02-0.2-1.34c-1.09-1.51-0.54-3.26-0.86-4.87c-0.15-0.75-0.4-1.55-0.84-2.16c-1.61-2.22-1.16-5.41,1.08-6.99
		c0.15-0.1,0.28-0.25,0.45-0.32c0.26-0.1,0.55-0.23,0.8-0.19c0.17,0.03,0.44,0.45,0.39,0.52c-0.15,0.21-0.4,0.39-0.64,0.5
		c-1.34,0.61-2.03,2.47-1.34,3.82c0.87,1.69,1.85,3.34,1.96,5.31c0.02,0.27-0.03,0.55,0,0.82c0.08,0.62,0.01,1.32,0.3,1.83
		c1.2,2.13,1.67,4.31,0.98,6.72c-0.52,1.78-0.05,3.33,1.35,4.58c0.45,0.41,0.86,0.88,1.27,1.34c0.64,0.72,1.36,1.22,2.36,1.47
		C61.74,46.27,63.85,49.8,63.25,52.66z"/>
	<path class="st0" d="M59.83,53.61c-0.01-0.05,0.02-0.12,0.06-0.17c0.33-0.49,0.01-0.79-0.36-0.95c-0.9-0.37-1.84-0.65-2.74-1.01
		c-0.79-0.32-1.41-0.03-1.86,0.57c-0.32,0.43-0.51,0.96-0.73,1.46c-0.34,0.78-0.59,1.62-1.01,2.36c-0.49,0.87-1.3,1.45-2.35,1.35
		c-1.04-0.11-1.42-0.95-1.66-1.86c-0.08-0.29-0.18-0.61-0.38-0.83c-0.21-0.23-0.53-0.46-0.83-0.49c-1.09-0.12-2.09,0.75-2.25,1.83
		c-0.16,1.03-0.16,2.16-0.6,3.06c-1.46,2.97-3.02,5.9-4.68,8.77c-0.9,1.55-2.48,2.15-4.26,2.1c-0.46-0.02-0.92-0.24-1.38-0.37
		c0.01-0.12,0.01-0.24,0.02-0.35c1.18-0.28,2.36-0.57,3.53-0.85c0.03-0.13,0.07-0.25,0.1-0.38c-0.81-0.58-1.61-1.15-2.42-1.72
		c-0.1,0.08-0.21,0.16-0.31,0.24c0.12,0.29,0.29,0.58,0.34,0.89c0.04,0.24-0.02,0.52-0.11,0.75c-0.02,0.06-0.35,0.09-0.46,0.02
		c-0.85-0.62-1.69-1.26-2.76-2.07c-0.05,0.56-0.12,0.96-0.12,1.35c0,0.4,0.08,0.8,0.12,1.2c-0.09,0.03-0.18,0.05-0.28,0.08
		c-0.73-0.83-1.45-1.66-2.11-2.41c-1.02,0.45-0.64,0.98-0.57,1.46c0.07,0.46,0.1,0.94,0.14,1.41c-0.14,0.06-0.27,0.12-0.41,0.17
		c-0.42-1.37-1.19-2.45-2.52-3.15c0.16,0.69,0.33,1.37,0.49,2.05c-0.13,0.07-0.25,0.14-0.38,0.22c-0.89-1.06-1.78-2.12-2.7-3.22
		c-0.29,0.33-0.56,0.61-0.7,0.77c0.12,0.75,0.22,1.36,0.31,1.96c-0.12,0.04-0.23,0.07-0.34,0.1c-1.23-0.91-1.81-2.25-2.25-3.64
		c-0.63,0.44-1.2,1.16-1.79,1.17c-0.52,0.01-1.06-0.77-1.41-1.05c-0.64,0.18-1.29,0.59-1.76,0.45c-0.56-0.18-0.98-0.84-1.38-1.21
		c-0.42,0.36-0.87,1.05-1.26,1.02c-0.49-0.04-0.92-0.67-1.38-1.05c-1.11,1.72-1.7,1.82-3.05,0.36c-0.1,0.55-0.2,0.96-0.24,1.37
		c-0.16,1.49-0.41,2.9-1.62,3.99c-0.3,0.27-0.36,0.88-0.39,1.34c-0.1,1.46-0.05,2.93-0.19,4.38c-0.18,1.83,0.54,2.94,2.33,3.22
		c0.82,0.13,1.65,0.16,2.48,0.21c1.75,0.1,3.53-0.02,5.24,0.3c4.36,0.81,8.69,1.57,13.16,1.02c2.28-0.28,4.64-0.07,6.88-0.54
		c3.32-0.69,6.58-1.74,9.61-3.36c1.86-0.99,3.44-2.29,4.33-4.25c0.9-1.98,1.81-3.96,2.57-6c1.1-2.97,2.54-5.7,4.67-8.07
		C59.21,56.5,60.45,55.42,59.83,53.61z M12.83,69.64c-0.3-1.41,0-2.44,0.92-3.06C13.94,67.81,13.72,68.77,12.83,69.64z M17,69.42
		c-0.11-0.02-0.23-0.04-0.34-0.07c0.14-0.76,0.28-1.52,0.42-2.28c0.12,0.02,0.23,0.04,0.35,0.07C17.41,67.93,17.48,68.73,17,69.42z
		 M20.87,69.86c-0.24-0.45-0.79-0.93-0.01-1.54c0.44,0.79,0.85,1.52,1.26,2.27C21.39,70.79,21.37,70.8,20.87,69.86z M27.23,74.29
		c-0.73,0.76-1.8,0.93-2.87,0.45c0.26-0.55,0.45-1.07,0.74-1.53c0.14-0.23,0.59-0.55,0.68-0.49c0.83,0.51,1.4-0.02,2.01-0.58
		C28.21,73.14,27.75,73.74,27.23,74.29z M50.64,68.65c-0.22,0.72-0.46,1.44-0.72,2.14c-0.12,0.33-0.26,0.7-0.49,0.95
		c-0.64,0.7-1.31,1.38-2.02,2c-0.25,0.23-0.67,0.28-1,0.42c-0.06-0.09-0.11-0.17-0.18-0.26c0.14-0.26,0.21-0.61,0.42-0.77
		c1.7-1.28,2.42-3.16,3.17-5.04c0.17-0.43,0.52-0.8,0.79-1.19c0.14,0.06,0.27,0.12,0.41,0.17C50.89,67.61,50.79,68.14,50.64,68.65z"
		/>
	<path class="st0" d="M15.54,52.93c-0.14-0.09-0.81,0.35-1.01,0.68c-0.76,1.31-1.43,2.69-2.18,4.12c0.63,0.29,1.07,0.49,1.52,0.69
		c0.17,0.08,0.34,0.15,0.51,0.21c0.84,0.27,1.73-0.08,1.88-0.94c0.21-1.16,0.3-2.37,0.25-3.55C16.49,53.71,15.96,53.22,15.54,52.93z
		"/>
	<path class="st0" d="M18.52,55.33c-0.41,0.63-0.81,1.34-0.93,2.07c-0.09,0.51,0.17,1.21,0.51,1.62c0.56,0.66,1.36,0.4,1.55-0.46
		c0.2-0.89,0.32-1.8,0.52-2.92c-0.15-0.27-0.36-0.67-0.58-1.08C19.22,54.81,18.74,54.99,18.52,55.33z"/>
	<path class="st0" d="M11.59,53.6c-0.05-0.23-0.24-0.58-0.39-0.6c-0.21-0.01-0.59,0.19-0.65,0.37c-0.39,1.28-0.79,2.56-1.01,3.87
		c-0.09,0.56,0.45,0.94,1.1,0.99c0.62,0.05,0.79-0.32,0.86-0.82c0.11-0.76,0.21-1.51,0.32-2.24C11.75,54.62,11.71,54.1,11.59,53.6z"
		/>
	<path class="st0" d="M29.25,57.23c-0.53,0.78-1.09,1.53-1.56,2.33c-0.61,1.03-0.39,1.79,0.71,2.31c0.27,0.12,0.89-0.02,1.05-0.24
		C30.16,60.63,30.4,58.13,29.25,57.23z"/>
	<path class="st0" d="M33.33,61.33c0.05-0.33,0.07-0.67,0.1-1.01c-0.03-0.42-0.02-0.86-0.12-1.27c-0.07-0.3-0.28-0.57-0.42-0.85
		c-0.28,0.17-0.69,0.26-0.83,0.5c-0.37,0.66-0.63,1.38-0.94,2.07c-0.44,0.97-0.11,1.22,0.85,1.61
		C32.65,62.66,33.18,62.21,33.33,61.33z"/>
	<path class="st0" d="M21.34,58.86c-0.07,0.19,0.5,0.66,0.84,0.9c0.15,0.11,0.55,0.05,0.7-0.08c0.91-0.83,1.04-3.41,0.05-4.67
		C22.33,56.41,21.77,57.61,21.34,58.86z"/>
	<path class="st0" d="M36.36,60.34c-0.14-0.7-0.35-1.39-0.52-2.08c-1.26,0.26-1.42,1.56-1.38,4.14
		C36.17,62.59,36.7,62.03,36.36,60.34z"/>
	<path class="st0" d="M15.79,60.11c0.1,1.27,0.2,2.55,1.1,3.87c0.35-0.88,0.69-1.58,0.9-2.32c0.34-1.19,0.18-1.47-0.9-2.12
		C16.43,59.26,15.75,59.58,15.79,60.11z"/>
	<path class="st0" d="M10.65,63.64c0.12-0.02,0.24-0.03,0.36-0.05c0.63-1.31,0.99-2.66,0.56-4.24c-0.63,0.09-1.13,0.16-1.85,0.26
		C10.05,61.01,10.35,62.33,10.65,63.64z"/>
	<path class="st0" d="M19.49,64.21c1.24-0.88,1.54-2.05,1.7-3.22c0.03-0.21-0.59-0.68-0.95-0.74c-0.35-0.05-0.76,0.27-1.1,0.41
		C19.26,61.87,19.36,62.96,19.49,64.21z"/>
	<path class="st0" d="M24.29,60.24c0.74,0.47,1.45,0.7,1.83-0.11c0.53-1.15,0.73-2.39-0.08-3.82C25.39,57.76,24.84,59,24.29,60.24z"
		/>
	<path class="st0" d="M22.3,61.6c0.08,1.08,0.24,2.15,0.38,3.22c0.15,0.03,0.29,0.06,0.44,0.09c0.48-1.01,0.95-2.02,1.51-3.19
		c-0.65-0.23-1.17-0.47-1.72-0.57C22.73,61.12,22.29,61.46,22.3,61.6z"/>
	<path class="st0" d="M25.36,62.69c0.1,0.87,0.34,1.72,0.52,2.59c0.16,0.01,0.32,0.01,0.48,0.02c0.3-0.72,0.64-1.43,0.88-2.17
		c0.17-0.54-0.41-1.38-0.91-1.4C25.68,61.7,25.29,62.09,25.36,62.69z"/>
	<path class="st0" d="M12.52,59.38c0.37,1.27,0.72,2.48,1.07,3.68C14.99,60.69,14.65,59.64,12.52,59.38z"/>
	<path class="st0" d="M28.27,63.81c-0.17,0.51,0.15,1.18,0.26,1.79c0.13,0.02,0.26,0.05,0.38,0.07c0.36-0.75,0.72-1.5,1.07-2.25
		c-0.1-0.1-0.19-0.19-0.29-0.29C29.2,63.35,28.39,63.47,28.27,63.81z"/>
	<path class="st0" d="M31.2,65.89c0.13,0.02,0.26,0.04,0.39,0.06c0.31-0.7,0.61-1.39,0.96-2.19c-0.6-0.14-1.05-0.25-1.7-0.41
		C30.98,64.32,31.09,65.11,31.2,65.89z"/>
	<path class="st0" d="M34.38,66.01c0.09,0,0.19,0,0.28,0c0.35-0.71,0.7-1.42,1.09-2.19c-0.77,0.05-1.39,0.1-2.12,0.15
		C33.88,64.65,34.13,65.33,34.38,66.01z"/>
</g>
</svg>
